# xmcd CD database file
#
# Track frame offsets:
#	150
#	20994
#	34185
#	55920
#	79018
#	94749
#	118047
#	135768
#	155266
#	172791
#	187165
#
# Disc length: 2774 seconds
#
# Revision: 4
# Processed by: cddbd v1.5.2PL0 Copyright (c) Steve Scherf et al.
# Submitted via: CDex 1.70beta2
#
DISCID=860ad40b
DTITLE=Rory Gallagher - Jinx
DYEAR=1982
DGENRE=Blues
TTITLE0=Signals
TTITLE1=The Devil Made Me Do It
TTITLE2=Double Vision
TTITLE3=Easy Come, Easy Go
TTITLE4=Big Guns
TTITLE5=Jinxed
TTITLE6=Bourbon
TTITLE7=Ride On Red, Ride On
TTITLE8=Loose Talk
TTITLE9=Nothin' But The Devil *
TTITLE10=Lonely Mile *
EXTD=CD 2012 - digitally remastered, 2012\nSony Music 88725461432 YEAR: 1982
EXTT0=
EXTT1=
EXTT2=
EXTT3=
EXTT4=
EXTT5=
EXTT6=
EXTT7=
EXTT8=
EXTT9=[Bonus Track]
EXTT10=[Bonus Track]
PLAYORDER=
